Dirty Rotten Scoundrels [BDRip-1080p-Mkv-Ita/Eng/Esp-Ac3-MultiSub][Nautilus-BT]



General
Complete name                    : E:\Due figli di... - Dirty Rotten Scoundrels [BDRip-1080p-MultiLang-MultiSub-Chapters][RiP By MaX].mkv
Format                           : Matroska
File size                        : 7.96 GiB
Duration                         : 1h 50mn
Overall bit rate                 : 10.3 Mbps
Encoded date                     : UTC 2011-06-02 12:33:22
Writing application              : mkvmerge v4.8.0 ('I Got The...') built on May 24 2011 03:12:58
Writing library                  : libebml v1.2.0 + libmatroska v1.1.0

Video
ID                               : 1
Format                           : AVC
Format/Info                      : Advanced Video Codec
Format profile                   : High@L4.1
Format settings, CABAC           : Yes
Format settings, ReFrames        : 3 frames
Muxing mode                      : Container profile=Unknown@4.1
Codec ID                         : V_MPEG4/ISO/AVC
Duration                         : 1h 50mn
Bit rate                         : 9 683 Kbps
Width                            : 1 920 pixels
Height                           : 1 040 pixels
Display aspect ratio             : 16:9
Frame rate                       : 23.976 fps
Color space                      : YUV
Chroma subsampling               : 4:2:0
Bit depth                        : 8 bits
Scan type                        : Progressive
Bits/(Pixel*Frame)               : 0.202
Stream size                      : 7.31 GiB (92%)
Title                            : Due figli di... - Dirty Rotten Scoundrels [BDRip 1080p][RiP By MaX]
Writing library                  : x264 core 115 r1995 c1e60b9
Encoding settings                : cabac=1 / ref=4 / deblock=1:0:0 / analyse=0x3:0x133 / me=umh / subme=7 / psy=1 / psy_rd=1.00:0.00 / mixed_ref=1 / me_range=32 / chroma_me=1 / trellis=2 / 8x8dct=1 / cqm=0 / deadzone=21,11 / fast_pskip=1 / chroma_qp_offset=-2 / threads=6 / sliced_threads=0 / slices=4 / nr=0 / decimate=1 / interlaced=0 / bluray_compat=1 / constrained_intra=0 / bframes=3 / b_pyramid=1 / b_adapt=2 / b_bias=0 / direct=1 / weightb=1 / open_gop=1 / weightp=1 / keyint=240 / keyint_min=23 / scenecut=40 / intra_refresh=0 / rc_lookahead=40 / rc=2pass / mbtree=1 / bitrate=9683 / ratetol=1.0 / qcomp=0.60 / qpmin=10 / qpmax=51 / qpstep=4 / cplxblur=20.0 / qblur=0.5 / vbv_maxrate=40000 / vbv_bufsize=40000 / nal_hrd=vbr / ip_ratio=1.40 / aq=1:1.00
Language                         : Italian

Audio #1
ID                               : 2
Format                           : AC-3
Format/Info                      : Audio Coding 3
Mode extension                   : CM (complete main)
Codec ID                         : A_AC3
Duration                         : 1h 50mn
Bit rate mode                    : Constant
Bit rate                         : 192 Kbps
Channel(s)                       : 2 channels
Channel positions                : Front: L R
Sampling rate                    : 48.0 KHz
Bit depth                        : 16 bits
Stream size                      : 151 MiB (2%)
Title                            : Ita Ac3 2.0
Language                         : Italian

Audio #2
ID                               : 3
Format                           : AC-3
Format/Info                      : Audio Coding 3
Mode extension                   : CM (complete main)
Codec ID                         : A_AC3
Duration                         : 1h 50mn
Bit rate mode                    : Constant
Bit rate                         : 256 Kbps
Channel(s)                       : 6 channels
Channel positions                : Front: L C R, Side: L R, LFE
Sampling rate                    : 48.0 KHz
Bit depth                        : 16 bits
Stream size                      : 202 MiB (2%)
Title                            : Eng Ac3 5.1

Audio #3
ID                               : 4
Format                           : AC-3
Format/Info                      : Audio Coding 3
Mode extension                   : CM (complete main)
Codec ID                         : A_AC3
Duration                         : 1h 50mn
Bit rate mode                    : Constant
Bit rate                         : 192 Kbps
Channel(s)                       : 2 channels
Channel positions                : Front: L R
Sampling rate                    : 48.0 KHz
Bit depth                        : 16 bits
Stream size                      : 151 MiB (2%)
Title                            : Esp Ac3 2.0
Language                         : Spanish

Text #1
ID                               : 5
Format                           : UTF-8
Codec ID                         : S_TEXT/UTF8
Codec ID/Info                    : UTF-8 Plain Text
Title                            : Sub Ita Forced
Language                         : Italian

Text #2
ID                               : 6
Format                           : UTF-8
Codec ID                         : S_TEXT/UTF8
Codec ID/Info                    : UTF-8 Plain Text
Title                            : Sub Ita
Language                         : Italian

Text #3
ID                               : 7
Format                           : UTF-8
Codec ID                         : S_TEXT/UTF8
Codec ID/Info                    : UTF-8 Plain Text
Title                            : Sub Eng

Text #4
ID                               : 8
Format                           : UTF-8
Codec ID                         : S_TEXT/UTF8
Codec ID/Info                    : UTF-8 Plain Text
Title                            : Sub Esp Forced
Language                         : Spanish

Text #5
ID                               : 9
Format                           : UTF-8
Codec ID                         : S_TEXT/UTF8
Codec ID/Info                    : UTF-8 Plain Text
Title                            : Sub Esp
Language                         : Spanish

Text #6
ID                               : 10
Format                           : UTF-8
Codec ID                         : S_TEXT/UTF8
Codec ID/Info                    : UTF-8 Plain Text
Title                            : Sub Fra Forced
Language                         : French

Text #7
ID                               : 11
Format                           : UTF-8
Codec ID                         : S_TEXT/UTF8
Codec ID/Info                    : UTF-8 Plain Text
Title                            : Sub Fra
Language                         : French

Text #8
ID                               : 12
Format                           : UTF-8
Codec ID                         : S_TEXT/UTF8
Codec ID/Info                    : UTF-8 Plain Text
Title                            : Sub Deu
Language                         : German

Text #9
ID                               : 13
Format                           : VobSub
Codec ID                         : S_VOBSUB
Codec ID/Info                    : The same subtitle format used on DVDs
Title                            : Sub Chi
Language                         : Chinese

Text #10
ID                               : 14
Format                           : UTF-8
Codec ID                         : S_TEXT/UTF8
Codec ID/Info                    : UTF-8 Plain Text
Title                            : Sub Dan
Language                         : Danish

Text #11
ID                               : 15
Format                           : UTF-8
Codec ID                         : S_TEXT/UTF8
Codec ID/Info                    : UTF-8 Plain Text
Title                            : Sub Ned
Language                         : Dutch

Text #12
ID                               : 16
Format                           : UTF-8
Codec ID                         : S_TEXT/UTF8
Codec ID/Info                    : UTF-8 Plain Text
Title                            : Sub Nor
Language                         : Norwegian

Text #13
ID                               : 17
Format                           : UTF-8
Codec ID                         : S_TEXT/UTF8
Codec ID/Info                    : UTF-8 Plain Text
Title                            : Sub Swe
Language                         : Swedish

Text #14
ID                               : 18
Format                           : VobSub
Codec ID                         : S_VOBSUB
Codec ID/Info                    : The same subtitle format used on DVDs
Title                            : Sub Tha
Language                         : Thai

Menu
00:00:00.000                     : :A Willing Infidel
00:08:08.238                     : :Amateur
00:18:47.126                     : :A Poacher
00:23:50.304                     : :Lady Fanny of Omaha
00:29:23.553                     : :With Style and Grace
00:32:37.747                     : :The Young Prince
00:40:01.107                     : :How to Spend Money
00:47:10.036                     : :Know Your Limitations
00:56:19.459                     : :A Little Luck
01:04:24.152                     : :The Doctor Is In
01:10:00.530                     : :Therapy
01:16:26.749                     : :A New Bet
01:24:23.684                     : :The Miracle
01:28:24.049                     : :Real Love
01:34:02.178                     : :The Jackal Strikes
01:41:53.399                     : :Chips and the Whiz Kid